<svg width="1439" height="807" viewBox="0 0 1439 807" fill="none" xmlns="http://www.w3.org/2000/svg">
<g opacity="0.42">
<path opacity="0.0526316" d="M1161.59 743.983C1203.25 726.963 1272.95 672.564 1218.53 591.13C1150.5 489.339 970.185 449.97 876.687 359.12C807.679 292.066 704.093 111.888 818.556 8.28268" stroke="url(#paint0_linear_357_7978)" stroke-width="1.07904"/>
<path opacity="0.105263" d="M1074.27 760.772C1118.97 746.212 1198.75 696.071 1160.28 611.992C1112.2 506.893 940.441 457.493 864.925 361.828C809.187 291.219 740.814 106.142 874.572 9.60907" stroke="url(#paint1_linear_357_7978)" stroke-width="1.07904"/>
<path opacity="0.157895" d="M985.767 773.455C1033.02 761.515 1122.01 716.183 1099.92 630.378C1072.31 523.122 910.988 464.233 854.279 364.801C812.424 291.412 780.012 103.463 931.599 15.0597" stroke="url(#paint2_linear_357_7978)" stroke-width="1.07904"/>
<path opacity="0.210526" d="M896.882 781.988C946.173 772.798 1043.39 732.771 1037.92 646.181C1031.09 537.944 881.97 470.211 844.691 368.101C817.177 292.736 821.082 103.975 988.836 24.6693" stroke="url(#paint3_linear_357_7978)" stroke-width="1.07904"/>
<path opacity="0.263158" d="M808.414 786.373C859.202 780.034 963.58 745.75 974.792 659.324C988.807 551.292 853.533 475.456 836.092 371.787C823.22 295.271 863.398 107.767 1045.48 38.4277" stroke="url(#paint4_linear_357_7978)" stroke-width="1.07904"/>
<path opacity="0.315789" d="M721.16 786.655C772.889 783.237 883.288 755.073 911.057 669.757C945.768 563.113 825.816 480.006 828.404 375.913C830.315 299.085 906.327 114.891 1100.75 56.2786" stroke="url(#paint5_linear_357_7978)" stroke-width="1.07904"/>
<path opacity="0.368421" d="M635.901 782.927C688.003 782.467 803.213 760.73 847.234 677.46C902.261 573.372 798.946 483.904 821.536 380.529C838.208 304.231 949.221 125.365 1153.85 78.1211" stroke="url(#paint6_linear_357_7978)" stroke-width="1.07904"/>
<path opacity="0.421053" d="M553.399 775.323C605.304 777.826 724.063 762.755 783.854 682.442C858.593 582.052 773.047 487.203 815.39 385.678C846.642 310.745 991.44 139.167 1204.03 103.81" stroke="url(#paint7_linear_357_7978)" stroke-width="1.07904"/>
<path opacity="0.473684" d="M474.382 764.022C525.521 769.461 646.527 761.22 721.434 684.745C815.067 589.152 748.227 489.962 809.86 391.399C855.349 318.652 1032.34 156.242 1250.57 133.159" stroke="url(#paint8_linear_357_7978)" stroke-width="1.07904"/>
<path opacity="0.526316" d="M399.542 749.241C449.355 757.556 571.283 756.237 660.484 684.437C771.985 594.688 724.584 492.243 804.83 397.722C864.058 327.959 1071.31 176.496 1292.78 165.939" stroke="url(#paint9_linear_357_7978)" stroke-width="1.07904"/>
<path opacity="0.578947" d="M329.525 731.237C377.467 742.338 498.981 747.954 601.498 681.616C729.646 598.695 702.203 494.118 800.184 404.675C872.502 338.659 1107.74 199.803 1330.03 201.888" stroke="url(#paint10_linear_357_7978)" stroke-width="1.07904"/>
<path opacity="0.631579" d="M264.926 710.303C310.471 724.067 430.238 736.557 544.95 676.408C688.34 601.223 681.155 495.659 795.798 412.274C880.414 350.729 1141.07 226.001 1361.73 240.706" stroke="url(#paint11_linear_357_7978)" stroke-width="1.07904"/>
<path opacity="0.684211" d="M206.278 686.761C248.926 703.037 365.636 722.265 491.285 668.964C648.346 602.338 661.499 496.945 791.548 420.53C887.533 364.131 1170.74 254.898 1387.37 282.061" stroke="url(#paint12_linear_357_7978)" stroke-width="1.07904"/>
<path opacity="0.736842" d="M154.047 660.964C193.333 679.575 305.706 705.329 440.916 659.46C609.927 602.124 643.273 498.055 787.303 429.449C893.607 378.813 1196.27 286.271 1406.48 325.596" stroke="url(#paint13_linear_357_7978)" stroke-width="1.07904"/>
<path opacity="0.789474" d="M108.636 633.29C144.128 654.031 250.934 686.03 394.222 648.095C573.333 600.677 626.506 499.073 782.938 439.028C898.397 394.709 1217.19 319.873 1418.7 370.927" stroke="url(#paint14_linear_357_7978)" stroke-width="1.07904"/>
<path opacity="0.842105" d="M70.3666 604.135C101.676 626.78 201.744 664.672 351.541 635.088C538.788 598.107 611.207 500.081 778.328 449.254C901.675 411.739 1233.12 355.428 1423.7 417.653" stroke="url(#paint15_linear_357_7978)" stroke-width="1.07904"/>
<path opacity="0.894737" d="M39.4844 573.915C66.2682 598.214 158.502 641.585 313.167 620.675C506.499 594.537 597.37 501.164 773.348 460.111C903.233 429.811 1243.69 392.642 1421.26 465.355" stroke="url(#paint16_linear_357_7978)" stroke-width="1.07904"/>
<path opacity="0.947368" d="M16.1536 543.054C38.1184 568.742 121.508 617.117 279.346 605.11C476.645 590.101 584.972 502.403 767.88 471.575C902.88 448.821 1248.61 431.201 1411.23 513.607" stroke="url(#paint17_linear_357_7978)" stroke-width="1.07904"/>
<path d="M0.456299 511.985C17.3613 538.781 90.9921 591.629 250.275 588.657C449.379 584.941 573.975 503.879 761.809 483.613C900.444 468.656 1247.67 470.779 1393.56 561.974" stroke="url(#paint18_linear_357_7978)" stroke-width="1.07904"/>
</g>
<defs>
<linearGradient id="paint0_linear_357_7978" x1="1080.69" y1="360.127" x2="920.897" y2="455.636" gradientUnits="userSpaceOnUse">
<stop stop-color="white"/>
<stop offset="1" stop-color="#9CA3AF"/>
</linearGradient>
<linearGradient id="paint1_linear_357_7978" x1="1067.62" y1="374.421" x2="884.708" y2="445.94" gradientUnits="userSpaceOnUse">
<stop stop-color="white"/>
<stop offset="1" stop-color="#9CA3AF"/>
</linearGradient>
<linearGradient id="paint2_linear_357_7978" x1="1053.44" y1="388.843" x2="853.513" y2="427.498" gradientUnits="userSpaceOnUse">
<stop stop-color="white"/>
<stop offset="1" stop-color="#9CA3AF"/>
</linearGradient>
<linearGradient id="paint3_linear_357_7978" x1="1038.14" y1="403.329" x2="831.874" y2="403.329" gradientUnits="userSpaceOnUse">
<stop stop-color="white"/>
<stop offset="1" stop-color="#9CA3AF"/>
</linearGradient>
<linearGradient id="paint4_linear_357_7978" x1="1021.71" y1="417.815" x2="821.778" y2="379.16" gradientUnits="userSpaceOnUse">
<stop stop-color="white"/>
<stop offset="1" stop-color="#9CA3AF"/>
</linearGradient>
<linearGradient id="paint5_linear_357_7978" x1="1004.15" y1="432.236" x2="821.242" y2="360.718" gradientUnits="userSpaceOnUse">
<stop stop-color="white"/>
<stop offset="1" stop-color="#9CA3AF"/>
</linearGradient>
<linearGradient id="paint6_linear_357_7978" x1="985.492" y1="446.53" x2="825.695" y2="351.021" gradientUnits="userSpaceOnUse">
<stop stop-color="white"/>
<stop offset="1" stop-color="#9CA3AF"/>
</linearGradient>
<linearGradient id="paint7_linear_357_7978" x1="965.758" y1="460.634" x2="830.618" y2="349.954" gradientUnits="userSpaceOnUse">
<stop stop-color="white"/>
<stop offset="1" stop-color="#9CA3AF"/>
</linearGradient>
<linearGradient id="paint8_linear_357_7978" x1="944.991" y1="474.489" x2="833.062" y2="355.616" gradientUnits="userSpaceOnUse">
<stop stop-color="white"/>
<stop offset="1" stop-color="#9CA3AF"/>
</linearGradient>
<linearGradient id="paint9_linear_357_7978" x1="923.244" y1="488.036" x2="831.736" y2="365.736" gradientUnits="userSpaceOnUse">
<stop stop-color="white"/>
<stop offset="1" stop-color="#9CA3AF"/>
</linearGradient>
<linearGradient id="paint10_linear_357_7978" x1="900.584" y1="501.222" x2="826.437" y2="378.411" gradientUnits="userSpaceOnUse">
<stop stop-color="white"/>
<stop offset="1" stop-color="#9CA3AF"/>
</linearGradient>
<linearGradient id="paint11_linear_357_7978" x1="877.084" y1="513.998" x2="817.503" y2="392.274" gradientUnits="userSpaceOnUse">
<stop stop-color="white"/>
<stop offset="1" stop-color="#9CA3AF"/>
</linearGradient>
<linearGradient id="paint12_linear_357_7978" x1="852.828" y1="526.316" x2="805.473" y2="406.418" gradientUnits="userSpaceOnUse">
<stop stop-color="white"/>
<stop offset="1" stop-color="#9CA3AF"/>
</linearGradient>
<linearGradient id="paint13_linear_357_7978" x1="827.907" y1="538.138" x2="790.913" y2="420.27" gradientUnits="userSpaceOnUse">
<stop stop-color="white"/>
<stop offset="1" stop-color="#9CA3AF"/>
</linearGradient>
<linearGradient id="paint14_linear_357_7978" x1="802.421" y1="549.428" x2="774.357" y2="433.477" gradientUnits="userSpaceOnUse">
<stop stop-color="white"/>
<stop offset="1" stop-color="#9CA3AF"/>
</linearGradient>
<linearGradient id="paint15_linear_357_7978" x1="776.476" y1="560.156" x2="756.281" y2="445.822" gradientUnits="userSpaceOnUse">
<stop stop-color="white"/>
<stop offset="1" stop-color="#9CA3AF"/>
</linearGradient>
<linearGradient id="paint16_linear_357_7978" x1="750.182" y1="570.301" x2="737.11" y2="457.175" gradientUnits="userSpaceOnUse">
<stop stop-color="white"/>
<stop offset="1" stop-color="#9CA3AF"/>
</linearGradient>
<linearGradient id="paint17_linear_357_7978" x1="723.653" y1="579.844" x2="717.232" y2="467.462" gradientUnits="userSpaceOnUse">
<stop stop-color="white"/>
<stop offset="1" stop-color="#9CA3AF"/>
</linearGradient>
<linearGradient id="paint18_linear_357_7978" x1="697.006" y1="588.777" x2="697.006" y2="476.646" gradientUnits="userSpaceOnUse">
<stop stop-color="white"/>
<stop offset="1" stop-color="#9CA3AF"/>
</linearGradient>
</defs>
</svg>
